# xmcd
#
# Track frame offsets: 
#        150
#        18485
#        46669
#        65572
#        104175
#
# Disc length: 1877 seconds
#
# Revision: 0
# Processed by: cddbd v1.5.2PL0 Copyright (c) Steve Scherf et al.
# Submitted via: ExactAudioCopy v1.2
#
DISCID=40075305
DTITLE=Sammy Lee and Ray Goren - Up in Heah!
DYEAR=2017
DGENRE=Blues
TTITLE0=Little Mama
TTITLE1=Sugar Momma
TTITLE2=Katrina
TTITLE3=Every Day I Have the Blues (Live)
TTITLE4=Ain't No Sunshine
EXTD=
EXTT0=
EXTT1=
EXTT2=
EXTT3=
EXTT4=
PLAYORDER=
